<svg xmlns="http://www.w3.org/2000/svg" xmlns:xlink="http://www.w3.org/1999/xlink" viewBox="0 0 210 210"><defs><style>.cls-1{fill:none;stroke:#003;stroke-linecap:round;stroke-linejoin:round;stroke-width:3px;}.cls-2{fill:#91d9bf;}.cls-3{fill:#003;}.cls-4{fill:#fff;}.cls-5{fill:#f24b59;}.cls-6{clip-path:url(#clip-path);}</style><clipPath id="clip-path"><path class="cls-1" d="M90,140s0,20,15,20,15-20,15-20h0c-8.28-5.52-21.72-5.52-30,0Z"/></clipPath></defs><title>AWAKEx</title><g id="Layer_9" data-name="Layer 9"><rect class="cls-2" width="210" height="210" rx="29.58"/><circle class="cls-3" cx="45" cy="125" r="25"/><ellipse class="cls-4" cx="35" cy="126.67" rx="5" ry="3.33"/><ellipse class="cls-4" cx="40" cy="116.67" rx="10" ry="6.67"/><circle class="cls-3" cx="165" cy="125" r="25"/><ellipse class="cls-4" cx="165" cy="126.67" rx="5" ry="3.33"/><ellipse class="cls-4" cx="160" cy="116.67" rx="10" ry="6.67"/><ellipse class="cls-5" cx="35" cy="155" rx="15" ry="5"/><ellipse class="cls-5" cx="175" cy="155" rx="15" ry="5"/><g class="cls-6"><rect class="cls-4" x="75" y="130" width="60" height="20"/><path class="cls-5" d="M135,170H75V140h0a97.6,97.6,0,0,0,60,0h0Z"/></g><path class="cls-1" d="M90,140s0,20,15,20,15-20,15-20h0c-8.28-5.52-21.72-5.52-30,0Z"/></g></svg>