<svg xmlns="http://www.w3.org/2000/svg" viewBox="0 0 190 40"><defs><style>.cls-1{fill:#378c7d;}.cls-2,.cls-3{fill:#91d9bf;}.cls-3{opacity:0.5;}.cls-4{fill:#fff;}</style></defs><title>Artboard 5LOGO</title><g id="Layer_9" data-name="Layer 9"><rect class="cls-1" width="190" height="40" rx="9.03"/><circle class="cls-2" cx="156.5" cy="23.5" r="6.5"/><circle class="cls-3" cx="166.5" cy="23.5" r="6.5"/><circle class="cls-4" cx="146.5" cy="23.5" r="6.5"/><path class="cls-4" d="M139,11.85l-6.43,10.69v6.75h-4.5V22.76l-6.54-10.91h5.12l3.76,6.73,3.64-6.73Z"/><path class="cls-2" d="M129,29.29h-4.65l-1.21-3.52h-6.46l-1.22,3.52h-4.53l6.44-17.44h5.18Zm-6.94-6.72-2.15-6.25-2.15,6.25Z"/><path class="cls-4" d="M115.49,20.59A8.48,8.48,0,0,1,114.37,25a8,8,0,0,1-2.81,3,8.41,8.41,0,0,1-2.8,1.08,18.89,18.89,0,0,1-3.61.3H99V11.85h6.33a16.47,16.47,0,0,1,3.68.35,8.5,8.5,0,0,1,2.6,1,7.87,7.87,0,0,1,2.84,3A8.92,8.92,0,0,1,115.49,20.59Zm-4.65,0a6.39,6.39,0,0,0-.63-2.95,4.39,4.39,0,0,0-2-1.91,5,5,0,0,0-1.41-.46,12.88,12.88,0,0,0-2.17-.13H103.5V26h1.14a13.4,13.4,0,0,0,2.35-.14,5.53,5.53,0,0,0,1.47-.53,4.31,4.31,0,0,0,1.8-1.89A6.61,6.61,0,0,0,110.84,20.55Z"/><path class="cls-4" d="M93.92,24.13a5,5,0,0,1-2.19,4.19,9.8,9.8,0,0,1-5.93,1.61A16.75,16.75,0,0,1,82,29.55a20.15,20.15,0,0,1-3-1V24.4h.49a10.45,10.45,0,0,0,3.13,1.71,9.3,9.3,0,0,0,4.4.52,4.15,4.15,0,0,0,1.09-.23,2.86,2.86,0,0,0,.85-.53,1.24,1.24,0,0,0,.33-.94,1.26,1.26,0,0,0-.49-1,3.35,3.35,0,0,0-1.42-.63c-.66-.16-1.35-.31-2.08-.44a16.74,16.74,0,0,1-2.06-.52,6.55,6.55,0,0,1-3.17-1.94,4.79,4.79,0,0,1-1-3.05,4.65,4.65,0,0,1,2.18-4,9.52,9.52,0,0,1,5.62-1.54,17.57,17.57,0,0,1,3.4.33,15.28,15.28,0,0,1,2.92.84v4h-.48a9.25,9.25,0,0,0-2.59-1.42A9.09,9.09,0,0,0,87,15.06a8.32,8.32,0,0,0-1.12.07,4.34,4.34,0,0,0-1.07.29,2,2,0,0,0-.79.53,1.17,1.17,0,0,0-.33.82,1.23,1.23,0,0,0,.53,1.06,6,6,0,0,0,2,.67l1.85.39a17.59,17.59,0,0,1,1.9.51,6.37,6.37,0,0,1,3,1.79A4.37,4.37,0,0,1,93.92,24.13Z"/><path class="cls-4" d="M79,29.29H74.66l-7.4-12v12H63.13V11.85h5.38l6.36,10v-10H79Z"/><path class="cls-2" d="M66.83,24.21,55.9,30.52,47.17,15.41,58.1,9.1,59.79,12l-7,4.08,1.5,2.6,6.55-3.78,1.69,2.93-6.55,3.78,2.16,3.73,7-4.07Z"/><path class="cls-4" d="M50,29.29H45.5V21.61H38.86v7.68h-4.5V11.85h4.5v6.38H45.5V11.85H50Z"/><path class="cls-4" d="M35.54,11.85l-4.7,17.44h-5L22.73,17.93,19.68,29.29h-5L10,11.85h4.7l2.67,12,3.22-12h4.49l3.06,12,2.81-12Z"/></g></svg>