<svg xmlns="http://www.w3.org/2000/svg" viewBox="0 0 20 20"><defs><style>.cls-1{fill:#f24b59;}</style></defs><title>Artboard 6x</title><g id="Layer_9" data-name="Layer 9"><path class="cls-1" d="M.37.12,2.9,2.48,5.38,4.89l4.94,4.82,4.84,4.93,2.41,2.47,2.36,2.52a.22.22,0,0,1-.19.37l-.15,0a20,20,0,0,1-7.21-2.58,26.27,26.27,0,0,1-5.51-4.25A26.92,26.92,0,0,1,2.61,7.64,20.24,20.24,0,0,1,0,.47L0,.31A.21.21,0,0,1,.19.07.23.23,0,0,1,.37.12Z"/><path class="cls-1" d="M20,.53c-1.24,2-2.58,3.9-3.9,5.81L14,9.16,11.9,11.91c-.7.92-1.32,1.91-2,2.89a9.32,9.32,0,0,1-2.41,2.44A16.34,16.34,0,0,1,4.38,19a13,13,0,0,1-3.89,1,.45.45,0,0,1-.48-.4v-.08a13.06,13.06,0,0,1,1-3.88,16.56,16.56,0,0,1,1.73-3.13A9.48,9.48,0,0,1,5.16,10c1-.64,2-1.26,2.89-2L10.81,6l2.83-2c1.92-1.32,3.82-2.65,5.83-3.89A.35.35,0,0,1,20,.17.33.33,0,0,1,20,.53Z"/></g></svg>