<svg id="BackGround" xmlns="http://www.w3.org/2000/svg" viewBox="0 0 200 80"><defs><style>.cls-1{fill:#378c7d;}.cls-2{fill:#fff;}</style></defs><title>LogoWhensGoodLogo</title><path class="cls-1" d="M20.27,0H183c9.38,0,17,8.11,17,18.11V46.38a18.54,18.54,0,0,1-1.1,6.28,18,18,0,0,1-.89,2.11A16.4,16.4,0,0,1,183.48,64h-2.4a3.88,3.88,0,0,0-3.75,4h0c0,6,5.49,10.94,12.67,11.84a26,26,0,0,1-2.67.16h-10c-9.79,0-17.93-5.62-19.66-13a3.75,3.75,0,0,0-3.62-3H20.27C9.07,64,0,54.32,0,42.38V21.62C0,9.68,9.07,0,20.27,0Z"/><path class="cls-2" d="M20.53,43.37,16.06,24.55h4.55L22,32.28c.42,2.26.81,4.69,1.12,6.59h.06c.3-2,.75-4.3,1.22-6.65L26,24.55h4.52l1.51,7.93c.42,2.2.72,4.21,1,6.31h.06c.28-2.1.7-4.3,1.09-6.57l1.53-7.67h4.33L35.21,43.37h-4.6L29,35.27c-.36-1.9-.67-3.66-.89-5.81h-.06c-.33,2.12-.64,3.91-1.08,5.81l-1.79,8.1Z"/><path class="cls-2" d="M41.91,23.54h4.24v7.82h.06a4.52,4.52,0,0,1,1.67-1.43,5,5,0,0,1,2.21-.53c2.71,0,4.77,1.87,4.77,6v8H50.62V35.85c0-1.78-.61-3-2.21-3a2.24,2.24,0,0,0-2.12,1.51,2.47,2.47,0,0,0-.14.92v8.1H41.91Z"/><path class="cls-2" d="M61.53,37.89c.12,1.76,1.87,2.6,3.86,2.6a11.3,11.3,0,0,0,3.77-.59l.55,2.88a12.78,12.78,0,0,1-4.94.87c-4.63,0-7.29-2.69-7.29-7,0-3.46,2.15-7.29,6.9-7.29,4.41,0,6.09,3.44,6.09,6.82a9.55,9.55,0,0,1-.14,1.67Zm5-2.9a2.47,2.47,0,0,0-2.4-2.77A2.8,2.8,0,0,0,61.51,35Z"/><path class="cls-2" d="M73,34.07c0-1.71-.06-3.13-.12-4.36h3.69l.2,1.9h.08a4.92,4.92,0,0,1,4.22-2.21c2.79,0,4.88,1.87,4.88,5.9v8.07H81.72V35.8c0-1.76-.62-3-2.15-3a2.34,2.34,0,0,0-2.18,1.59,3.1,3.1,0,0,0-.14,1.06v7.88H73Z"/><path class="cls-2" d="M93.58,24a35.27,35.27,0,0,1-3.35,7.54l-2.57.25a45,45,0,0,0,2-7.54Z"/><path class="cls-2" d="M93.27,39.68a8.39,8.39,0,0,0,3.66,1c1.29,0,1.82-.42,1.82-1.12s-.42-1.06-2-1.59c-2.84-.95-3.93-2.49-3.91-4.11,0-2.57,2.18-4.49,5.56-4.49a9,9,0,0,1,3.83.81l-.73,2.93a6.71,6.71,0,0,0-3-.78c-1,0-1.62.41-1.62,1.08s.53,1,2.21,1.6c2.59.89,3.66,2.23,3.68,4.21,0,2.57-2,4.44-5.89,4.44a9.73,9.73,0,0,1-4.41-1Z"/><path class="cls-2" d="M126.92,42.5a21,21,0,0,1-6.29,1.06c-3.43,0-5.92-.86-7.65-2.51a9.46,9.46,0,0,1-2.65-6.87c0-6.26,4.58-9.83,10.75-9.83a13.57,13.57,0,0,1,5.22.89l-.89,3.44a9.79,9.79,0,0,0-4.36-.81c-3.54,0-6.25,2-6.25,6.09,0,3.9,2.45,6.17,6,6.17a6.49,6.49,0,0,0,2.06-.25v-4h-2.9V32.59h7Z"/><path class="cls-2" d="M143.75,36.38a6.86,6.86,0,0,1-7.21,7.29,6.68,6.68,0,0,1-7.06-7c0-4.44,2.9-7.26,7.32-7.26A6.63,6.63,0,0,1,143.75,36.38Zm-9.89.14c0,2.35,1,4.11,2.8,4.11s2.7-1.65,2.7-4.13c0-2-.78-4.08-2.7-4.08S133.86,34.51,133.86,36.52Z"/><path class="cls-2" d="M159.94,36.38a6.85,6.85,0,0,1-7.2,7.29,6.68,6.68,0,0,1-7.07-7c0-4.44,2.9-7.26,7.32-7.26A6.63,6.63,0,0,1,159.94,36.38Zm-9.89.14c0,2.35,1,4.11,2.8,4.11s2.71-1.65,2.71-4.13c0-2-.79-4.08-2.71-4.08S150.05,34.51,150.05,36.52Z"/><path class="cls-2" d="M175.88,23.54V39.29c0,1.53.06,3.15.11,4.08h-3.77l-.17-2H172a4.76,4.76,0,0,1-4.27,2.29c-3.24,0-5.84-2.76-5.84-7,0-4.6,2.85-7.28,6.12-7.28a4.2,4.2,0,0,1,3.6,1.53h0V23.54Zm-4.25,12a4.25,4.25,0,0,0,0-.78,2.55,2.55,0,0,0-2.49-2.07c-2,0-2.93,1.73-2.93,3.88,0,2.32,1.15,3.77,2.91,3.77a2.51,2.51,0,0,0,2.48-2,5.26,5.26,0,0,0,.08-1Z"/><path class="cls-2" d="M181.43,37.25l0-.73a6,6,0,0,1,1.65-4.35c.89-1.09,1.62-2,1.62-2.93s-.64-1.65-2-1.68a5.27,5.27,0,0,0-2.76.84l-1-3a9.73,9.73,0,0,1,4.66-1.14c3.69,0,5.39,2,5.39,4.36,0,2.12-1.34,3.51-2.4,4.69a4.87,4.87,0,0,0-1.42,3.49v.5Zm-.72,3.88a2.5,2.5,0,1,1,2.48,2.54A2.4,2.4,0,0,1,180.71,41.13Z"/></svg>