<svg id="BackGround" xmlns="http://www.w3.org/2000/svg" viewBox="0 0 200 80"><defs><style>.cls-1{fill:#378c7d;}.cls-2{font-size:27.92px;fill:#fff;font-family:MyriadPro-Bold, Myriad Pro;font-weight:700;}.cls-3{letter-spacing:-0.01em;}.cls-4{letter-spacing:0em;}.cls-5{letter-spacing:-0.03em;}.cls-6{letter-spacing:-0.09em;}.cls-7{letter-spacing:0.01em;}.cls-8{letter-spacing:0em;}</style></defs><title>LogoWhensGoodLogo</title><path class="cls-1" d="M20.27,0H183c9.38,0,17,8.11,17,18.11V46.38a18.54,18.54,0,0,1-1.1,6.28,18,18,0,0,1-.89,2.11A16.4,16.4,0,0,1,183.48,64h-2.4a3.88,3.88,0,0,0-3.75,4h0c0,6,5.49,10.94,12.67,11.84a26,26,0,0,1-2.67.16h-10c-9.79,0-17.93-5.62-19.66-13a3.75,3.75,0,0,0-3.62-3H20.27C9.07,64,0,54.32,0,42.38V21.62C0,9.68,9.07,0,20.27,0Z"/><text class="cls-2" transform="translate(15.64 43.37)"><tspan class="cls-3">W</tspan><tspan class="cls-4" x="24.57" y="0">he</tspan><tspan class="cls-5" x="55.66" y="0">n</tspan><tspan class="cls-6" x="71.3" y="0">’</tspan><tspan x="75.96" y="0">s </tspan><tspan class="cls-7" x="93.71" y="0">G</tspan><tspan class="cls-8" x="112.92" y="0">oo</tspan><tspan x="145.3" y="0">d?</tspan></text></svg>